<svg xmlns="http://www.w3.org/2000/svg" width="108" height="44" version="1.2" viewBox="0 0 108 44"><title>opni-svg</title><style>.s0{fill:#a453b9}.s1{fill:#fff}.s2{fill:#344845}</style><g id="layer1"><g id="g838"><g id="g6210"><g id="g23"><path id="path11" d="m47.6 43.7h-42.3c-2.9 0-5.3-2.4-5.3-5.3v-33.1c0-2.9 2.4-5.3 5.3-5.3h42.3c2.9 0 5.3 2.4 5.3 5.3v33.1c0 2.9-2.4 5.3-5.3 5.3z" class="s0"/><g id="g21"><path id="path13" d="m45.4 18.8q0 0 0 0 0 0 0 0.1 0 0 0 0.1 0 0 0 0.1 0 0 0 0.1 0 0 0 0 0 0.1 0 0.2-0.1 0-0.1 0 0 0.1 0 0.1 0 0.1-0.1 0.1 0 0.1 0 0.1 0 0.1-0.1 0.1 0 0 0 0.1 0 0-0.1 0.1 0 0 0 0 0 0.1-0.1 0.1 0 0 0 0.1-0.1 0-0.1 0 0 0.1-0.1 0.1 0 0 0 0 0 0 0 0-0.3 0.2-0.6 0.3 0 0 0 0-0.1 0.1-0.3 0.1 0 0 0 0-0.2 0-0.3 0 0 0 0 0 0 0 0 0 0 0 0 0h-5.5c-1.1 0-2-0.8-2-1.9 0-1.1 0.9-2 2-2h0.5c-2.7-2.1-6.9-4.5-12-4.5-9.2 0-15.4 7.6-15.5 7.7-0.7 0.9-1.9 1-2.8 0.3-0.8-0.7-1-1.9-0.3-2.8 0.3-0.3 7.4-9.2 18.6-9.2 6.6 0 11.8 3.1 15 5.7v-0.7c0-1.1 0.9-2 2-2 1.1 0 1.9 0.9 1.9 2 0 0 0 5.5 0 5.5z" class="s1"/><path id="path15" d="m45 26.1c-0.3 0.4-7.4 9.3-18.5 9.3-6.7 0-11.9-3.2-15.1-5.8v0.7c0 1.1-0.9 2-1.9 2-1.1 0-2-0.9-2-2v-5.4q0 0 0 0 0-0.1 0-0.1 0-0.1 0-0.1 0-0.1 0-0.1 0-0.1 0-0.1 0-0.1 0-0.1 0 0 0.1-0.1 0 0 0-0.1 0 0 0-0.1 0 0 0.1-0.1 0 0 0-0.1 0 0 0.1-0.1 0 0 0 0 0-0.1 0.1-0.1 0 0 0-0.1 0.1 0 0.1 0 0-0.1 0.1-0.1 0 0 0-0.1 0.1 0 0.1 0 0-0.1 0-0.1 0 0 0.1 0 0 0 0.1-0.1 0 0 0 0 0.1 0 0.1-0.1 0.1 0 0.1 0 0.1 0 0.1 0 0.1-0.1 0.1-0.1 0 0 0.1 0 0 0 0.1 0 0 0 0.1-0.1 0 0 0.1 0 0 0 0.1 0 0 0 0.1 0 0 0 0.1 0h5.4c1.1 0 2 0.9 2 2 0 1.1-0.9 2-2 2h-0.5c2.7 2.1 6.9 4.5 12.1 4.5 9.1 0 15.3-7.7 15.4-7.7 0.7-0.9 1.9-1 2.8-0.4 0.9 0.7 1 2 0.3 2.8z" class="s1"/><path id="path17" d="m26.4 15.2q0.6 0 1.3 0.1l-4.8 7.8h3l-0.9 5.2c-3-0.6-5.2-3.3-5.2-6.5 0-3.6 2.9-6.6 6.6-6.6z" class="s1"/><path id="path19" d="m25 28.3l4.8-7.8h-3l0.9-5.1c3 0.6 5.3 3.2 5.3 6.4 0 3.7-3 6.6-6.6 6.6q-0.7 0-1.4-0.1z" class="s1"/></g></g><path id="path25" fill-rule="evenodd" d="m60.3 21.4c0-4.8 2.6-6.7 6.2-6.7 3.5 0 6.1 1.9 6.1 6.7 0 5.4-2.7 7.1-6.1 7.1-3.6 0-6.2-1.9-6.2-7.1zm8.9 0c0-3.3-1.3-4.4-2.8-4.4-1.4 0-2.7 1.1-2.7 4.4 0 3.7 1.3 4.8 2.7 4.8 1.5 0 2.8-1.1 2.8-4.8z" class="s2"/><path id="path27" fill-rule="evenodd" d="m74.3 14.9h5.7c2.6 0 4.5 1.3 4.5 4 0 2.9-1.8 4.6-4.5 4.6h-2.3v4.8h-3.4zm3.4 2.4v3.8h1.5c1 0 2-0.6 2-2 0-1.4-1-1.8-2-1.8z" class="s2"/><path id="path29" d="m86.1 14.9h3.6l3.5 6.6c0.3 0.6 0.7 1.6 1 2.4h0.1c-0.1-0.7-0.2-1.8-0.2-2.6v-6.4h2.7v13.4h-3.4l-3.7-6.6c-0.3-0.6-0.7-1.5-1-2.2 0 0.7 0.1 1.6 0.1 2.4v6.4h-2.7z" class="s2"/><path id="path31" d="m99.2 14.9h6.9v2.3h-1.8v8.7h1.8v2.4h-6.9v-2.4h1.8v-8.7h-1.8z" class="s2"/></g></g></g></svg>